<svg width="109" height="109" viewBox="0 0 109 109" fill="none" xmlns="http://www.w3.org/2000/svg">
<circle cx="54.5" cy="54.5" r="54.5" fill="#D7EDF3"/>
<path d="M101.968 80.8471L82.9933 80.4409C74.9087 78.5679 66.6295 82.6936 63.3294 90.2405L55.379 109C75.4822 108.504 92.89 97.2583 101.968 80.8471Z" fill="#3C8863"/>
<path d="M0 54.6147C0 79.8447 17.2547 101.063 40.6666 107.242L36.7664 94.3058C33.7707 84.3689 38.448 73.7355 47.8191 69.18L50.5702 67.8424C54.2328 66.0619 55.5985 61.5584 53.5361 58.0607V58.0607C52.2788 55.9283 49.9797 54.6182 47.4945 54.6182H40.9615C34.3704 54.6182 30.5463 47.1978 34.3948 41.8759L40.299 33.7109C42.452 30.7334 42.3077 26.6844 39.9484 23.866L26.5925 7.91129C10.6612 17.4306 0 34.7833 0 54.6147Z" fill="#3C8863"/>
</svg>
